<svg id="Layer_1" enable-background="new 0 0 512.535 512.535" height="512" viewBox="0 0 512.535 512.535" width="512" xmlns="http://www.w3.org/2000/svg"><g><g clip-rule="evenodd" fill-rule="evenodd"><path d="m83.32 283.906c-93.189-161.407 78.178-268.671 173.108-173.741 94.929-94.93 266.296 12.334 173.108 173.741-42.888 74.285-129.388 142.391-173.108 154.106-43.72-11.715-130.22-79.821-173.108-154.106z" fill="#ff5d7d"/><path d="m403.042 247.08c-24.825-42.997 20.826-71.571 46.115-46.283 25.288-25.288 70.939 3.286 46.114 46.283-11.425 19.789-34.468 37.932-46.114 41.053-11.647-3.121-34.69-21.264-46.115-41.053z" fill="#ff9eb1"/><g fill="#ffc144"><ellipse cx="108.288" cy="96.262" rx="40.001" ry="40.001" transform="matrix(.707 -.707 .707 .707 -36.351 104.765)"/><circle cx="432.293" cy="416.272" r="40.001"/></g></g><g><path d="m504.263 197.847c7.782-13.947 10.035-27.309 6.692-39.783-4.408-16.453-20.695-37.93-73.151-47.085-43.522-54.692-128.961-62.415-181.375-14.492-36.171-31.545-84.041-40.489-128.074-23.701-4.857-5.383-8.476-11.904-10.408-19.115-2.679-9.816-16.64-9.811-19.318-.001-4.293 16.02-16.911 28.638-32.931 32.931-9.815 2.682-9.81 16.642.001 19.318 3.612.968 7.05 2.359 10.259 4.116-16.71 19.964-26.689 44.465-29.01 71.474-.872 10.141-.671 20.443.596 30.877-93.512 75.381-37.603 130.998 68.358 133.15 14.17 16.147 30.082 31.865 47.158 46.482 33.359 28.555 67.296 49.359 90.78 55.651 1.695.455 3.481.455 5.176 0 23.484-6.292 57.421-27.097 90.78-55.651 35.343-30.252 65.698-65.224 85.946-98.946 3.958 2.245 7.648 3.866 10.827 4.718 1.695.455 3.48.455 5.176 0 14.434-3.866 39.416-23.591 52.187-45.711 13.255-22.959 9.442-42.02.331-54.232zm-12.626-34.606c1.727 6.445.639 13.745-3.231 21.771-7.141-3.281-14.925-4.362-22.484-3.305-1.421-16.688-5.796-32.439-12.748-46.675 21.583 6.421 35.275 16.314 38.463 28.209zm-383.349-83.635c4.521 6.487 10.168 12.135 16.656 16.656-6.488 4.521-12.135 10.168-16.656 16.656-4.521-6.488-10.169-12.136-16.656-16.656 6.487-4.522 12.134-10.169 16.656-16.656zm-87.069 209.683c-3.928-14.66 7.149-34.18 30.619-54.533 7.974 31.126 25.868 62.626 46.681 89.617-43.244-3.92-72.307-16.448-77.3-35.084zm315.572 87.536c-29.467 25.222-59.898 44.41-80.363 50.776-30.026-8.452-84.951-51.016-113.481-82.124 6.255-.21 12.678-.551 19.263-1.027 5.509-.397 9.651-5.186 9.253-10.694-.397-5.509-5.184-9.676-10.694-9.253-12.441.899-24.344 1.276-35.584 1.162-52.73-59.824-82.792-145.442-34.15-202.498 3.45 4.64 6.057 9.944 7.595 15.685 2.682 9.815 16.642 9.81 19.318-.001 4.292-16.02 16.91-28.638 32.93-32.93 9.535-2.582 9.899-16.028.565-19.149 34.852-7.372 70.936 3.484 97.914 30.464 3.725 3.873 10.418 3.873 14.143 0 65.435-67.099 177.948-23.69 182.699 69.005-13.977-7.525-31.112-6.502-44.253 3.582-13.909 10.672-24.235 33.381-7.563 62.257 1.249 2.163 2.615 4.303 4.076 6.408-35.267 18.132-76.909 33.859-121.146 45.712-9.554 2.56-19.329 4.956-29.055 7.123-5.391 1.201-8.787 6.545-7.586 11.936 1.178 5.429 6.684 8.799 11.936 7.586 55.028-12.094 114.119-32.834 159.025-56.665 2.536 2.554 5.149 4.975 7.781 7.227-19.144 32.327-48.383 66.111-82.623 95.418zm149.819-134.745c-9.846 17.054-28.183 31.317-37.454 35.44-18.026-7.529-61.534-50.043-35.036-71.83 8.268-6.217 19.814-6.098 27.965 2.178 3.905 3.906 10.235 3.905 14.143 0 9.186-9.188 20.936-7.572 27.965-2.178 7.848 6.023 12.605 18.745 2.417 36.39z"/><path d="m474.883 406.613c-16.02-4.292-28.638-16.91-32.931-32.931-2.682-9.815-16.642-9.81-19.318.001-4.292 16.02-16.91 28.638-32.93 32.93-9.816 2.68-9.811 16.64-.001 19.318 16.021 4.293 28.639 16.911 32.931 32.931 2.679 9.816 16.641 9.811 19.318.001 4.293-16.021 16.911-28.639 32.932-32.932 9.815-2.682 9.81-16.642-.001-19.318zm-42.59 26.316c-4.521-6.488-10.168-12.136-16.656-16.657 6.488-4.521 12.136-10.168 16.656-16.656 4.521 6.488 10.169 12.136 16.657 16.656-6.488 4.521-12.136 10.169-16.657 16.657z"/><path d="m206.206 319.405h-.007c-5.522 0-9.996 4.478-9.996 10 .528 13.263 19.478 13.262 20.003 0 0-5.522-4.478-10-10-10z"/></g></g></svg>